<svg width="46" height="46" viewBox="0 0 46 46" fill="none" xmlns="http://www.w3.org/2000/svg">
<g id="1 svg">
<g id="7">
<g id="Oval">
<path fill-rule="evenodd" clip-rule="evenodd" d="M23 39C31.8366 39 39 31.8366 39 23C39 14.1634 31.8366 7 23 7C14.1634 7 7 14.1634 7 23C7 31.8366 14.1634 39 23 39Z" fill="url(#paint0_radial)"/>
<path fill-rule="evenodd" clip-rule="evenodd" d="M23 39C31.8366 39 39 31.8366 39 23C39 14.1634 31.8366 7 23 7C14.1634 7 7 14.1634 7 23C7 31.8366 14.1634 39 23 39Z" fill="url(#paint1_linear)"/>
</g>
<path id="Fill 4" fill-rule="evenodd" clip-rule="evenodd" d="M18.6452 24.0638C16.2163 24.0638 14.247 22.0944 14.247 19.6653C14.247 17.236 16.2163 15.2669 18.6452 15.2669C21.0745 15.2669 23.0438 17.236 23.0438 19.6653C23.0438 22.0944 21.0745 24.0638 18.6452 24.0638Z" fill="#CA8502"/>
<path id="Fill 10" fill-rule="evenodd" clip-rule="evenodd" d="M33.753 19.6653C33.753 22.0947 31.7837 24.0638 29.3543 24.0638C26.9255 24.0638 24.9562 22.0947 24.9562 19.6653C24.9562 17.236 26.9255 15.2669 29.3543 15.2669C31.7837 15.2669 33.753 17.236 33.753 19.6653Z" fill="#CA8502"/>
<g id="Fill 4_2">
<path fill-rule="evenodd" clip-rule="evenodd" d="M17.6452 23.0638C15.2163 23.0638 13.247 21.0944 13.247 18.6653C13.247 16.236 15.2163 14.2669 17.6452 14.2669C20.0745 14.2669 22.0438 16.236 22.0438 18.6653C22.0438 21.0944 20.0745 23.0638 17.6452 23.0638Z" fill="url(#paint2_radial)"/>
<path fill-rule="evenodd" clip-rule="evenodd" d="M17.6452 23.0638C15.2163 23.0638 13.247 21.0944 13.247 18.6653C13.247 16.236 15.2163 14.2669 17.6452 14.2669C20.0745 14.2669 22.0438 16.236 22.0438 18.6653C22.0438 21.0944 20.0745 23.0638 17.6452 23.0638Z" fill="url(#paint3_linear)"/>
</g>
<path id="Fill 6" fill-rule="evenodd" clip-rule="evenodd" d="M13.247 26.6335C13.7961 31.4396 17.9236 35.1753 22.9363 35.1753C27.9489 35.1753 32.0764 31.4396 32.6255 26.6335H13.247Z" fill="#1D1D1D"/>
<g id="Fill 8">
<path fill-rule="evenodd" clip-rule="evenodd" d="M22.8591 35.1753C25.473 35.1753 27.7675 34.2729 29.4538 32.7066C22.9599 29.5359 16.2846 32.459 16.1963 32.5019C17.9046 34.1602 20.2451 35.1753 22.8591 35.1753Z" fill="#FF2223"/>
<path fill-rule="evenodd" clip-rule="evenodd" d="M22.8591 35.1753C25.473 35.1753 27.7675 34.2729 29.4538 32.7066C22.9599 29.5359 16.2846 32.459 16.1963 32.5019C17.9046 34.1602 20.2451 35.1753 22.8591 35.1753Z" fill="url(#paint4_radial)"/>
</g>
<g id="Fill 10_2">
<path fill-rule="evenodd" clip-rule="evenodd" d="M32.753 18.6653C32.753 21.0947 30.7837 23.0638 28.3543 23.0638C25.9255 23.0638 23.9562 21.0947 23.9562 18.6653C23.9562 16.236 25.9255 14.2669 28.3543 14.2669C30.7837 14.2669 32.753 16.236 32.753 18.6653Z" fill="url(#paint5_radial)"/>
<path fill-rule="evenodd" clip-rule="evenodd" d="M32.753 18.6653C32.753 21.0947 30.7837 23.0638 28.3543 23.0638C25.9255 23.0638 23.9562 21.0947 23.9562 18.6653C23.9562 16.236 25.9255 14.2669 28.3543 14.2669C30.7837 14.2669 32.753 16.236 32.753 18.6653Z" fill="url(#paint6_linear)"/>
</g>
<g id="Fill 10_3">
<path fill-rule="evenodd" clip-rule="evenodd" d="M33.4263 18.741C33.4263 20.255 32.4274 21.4821 31.1951 21.4821C29.963 21.4821 28.9641 20.255 28.9641 18.741C28.9641 17.2271 29.963 16 31.1951 16C32.4274 16 33.4263 17.2271 33.4263 18.741Z" fill="black"/>
<path fill-rule="evenodd" clip-rule="evenodd" d="M33.4263 18.741C33.4263 20.255 32.4274 21.4821 31.1951 21.4821C29.963 21.4821 28.9641 20.255 28.9641 18.741C28.9641 17.2271 29.963 16 31.1951 16C32.4274 16 33.4263 17.2271 33.4263 18.741Z" fill="url(#paint7_radial)"/>
</g>
<g id="Fill 10 Copy">
<path fill-rule="evenodd" clip-rule="evenodd" d="M20.231 21.4821C18.9989 21.4821 18 20.255 18 18.741C18 17.2271 18.9989 16 20.231 16C21.4632 16 22.4622 17.2271 22.4622 18.741C22.4622 20.255 21.4632 21.4821 20.231 21.4821Z" fill="black"/>
<path fill-rule="evenodd" clip-rule="evenodd" d="M20.231 21.4821C18.9989 21.4821 18 20.255 18 18.741C18 17.2271 18.9989 16 20.231 16C21.4632 16 22.4622 17.2271 22.4622 18.741C22.4622 20.255 21.4632 21.4821 20.231 21.4821Z" fill="url(#paint8_radial)"/>
</g>
</g>
</g>
<defs>
<radialGradient id="paint0_radial" cx="0" cy="0" r="1" gradientUnits="userSpaceOnUse" gradientTransform="translate(16.141 17.5171) rotate(90) scale(13.6296)">
<stop stop-color="#FFE8A1"/>
<stop offset="1" stop-color="#FFC500"/>
</radialGradient>
<linearGradient id="paint1_linear" x1="15.3256" y1="32.2052" x2="33.7361" y2="39.2758" gradientUnits="userSpaceOnUse">
<stop stop-color="#FFCB00" stop-opacity="0.105141"/>
<stop offset="1" stop-color="#E13A00" stop-opacity="0.402098"/>
</linearGradient>
<radialGradient id="paint2_radial" cx="0" cy="0" r="1" gradientUnits="userSpaceOnUse" gradientTransform="translate(15.9756 17.8579) rotate(90) scale(4.76696)">
<stop stop-color="white"/>
<stop offset="1" stop-color="#E3E3E3"/>
</radialGradient>
<linearGradient id="paint3_linear" x1="22.0438" y1="14.2669" x2="13.247" y2="14.2669" gradientUnits="userSpaceOnUse">
<stop stop-color="#D2D2D2"/>
<stop offset="1" stop-color="white" stop-opacity="0.502568"/>
</linearGradient>
<radialGradient id="paint4_radial" cx="0" cy="0" r="1" gradientUnits="userSpaceOnUse" gradientTransform="translate(21.1395 33.2037) scale(7.57483 2.25302)">
<stop stop-color="#FF6F6F"/>
<stop stop-color="#FF6D6D" stop-opacity="0.995195"/>
<stop offset="1" stop-color="#FF0000" stop-opacity="0.5"/>
</radialGradient>
<radialGradient id="paint5_radial" cx="0" cy="0" r="1" gradientUnits="userSpaceOnUse" gradientTransform="translate(26.6847 17.8579) rotate(90) scale(4.76696)">
<stop stop-color="white"/>
<stop offset="1" stop-color="#E3E3E3"/>
</radialGradient>
<linearGradient id="paint6_linear" x1="32.753" y1="14.2669" x2="23.9562" y2="14.2669" gradientUnits="userSpaceOnUse">
<stop stop-color="#D2D2D2"/>
<stop offset="1" stop-color="white" stop-opacity="0.502568"/>
</linearGradient>
<radialGradient id="paint7_radial" cx="0" cy="0" r="1" gradientUnits="userSpaceOnUse" gradientTransform="translate(30.4162 18.2723) rotate(90) scale(2.00092 1.62866)">
<stop stop-color="white" stop-opacity="0.3"/>
<stop offset="1" stop-opacity="0.5"/>
</radialGradient>
<radialGradient id="paint8_radial" cx="0" cy="0" r="1" gradientUnits="userSpaceOnUse" gradientTransform="translate(19.4521 18.2723) rotate(90) scale(2.00092 1.62866)">
<stop stop-color="white" stop-opacity="0.3"/>
<stop offset="1" stop-opacity="0.5"/>
</radialGradient>
</defs>
</svg>
