<svg width="46" height="46" viewBox="0 0 46 46" fill="none" xmlns="http://www.w3.org/2000/svg">
<g id="2 svg">
<g id="6">
<g id="Oval">
<path fill-rule="evenodd" clip-rule="evenodd" d="M23 39C31.8366 39 39 31.8366 39 23C39 14.1634 31.8366 7 23 7C14.1634 7 7 14.1634 7 23C7 31.8366 14.1634 39 23 39Z" fill="url(#paint0_radial)"/>
<path fill-rule="evenodd" clip-rule="evenodd" d="M23 39C31.8366 39 39 31.8366 39 23C39 14.1634 31.8366 7 23 7C14.1634 7 7 14.1634 7 23C7 31.8366 14.1634 39 23 39Z" fill="url(#paint1_linear)"/>
</g>
<path id="Fill 6" fill-rule="evenodd" clip-rule="evenodd" d="M13.247 26.6335C13.7961 31.4396 17.9236 35.1753 22.9363 35.1753C27.9489 35.1753 32.0764 31.4396 32.6255 26.6335H13.247Z" fill="#1D1D1D"/>
<g id="Fill 8">
<path fill-rule="evenodd" clip-rule="evenodd" d="M22.8591 35.1753C25.473 35.1753 27.7675 34.2729 29.4538 32.7066C22.9599 29.5359 16.2846 32.459 16.1963 32.5019C17.9046 34.1602 20.2451 35.1753 22.8591 35.1753Z" fill="#FF2223"/>
<path fill-rule="evenodd" clip-rule="evenodd" d="M22.8591 35.1753C25.473 35.1753 27.7675 34.2729 29.4538 32.7066C22.9599 29.5359 16.2846 32.459 16.1963 32.5019C17.9046 34.1602 20.2451 35.1753 22.8591 35.1753Z" fill="url(#paint2_radial)"/>
</g>
<path id="Fill 8_2" fill-rule="evenodd" clip-rule="evenodd" d="M21.3682 13.4368C20.8159 11.4009 18.8826 9.94911 16.7365 10.5687C15.031 11.0609 14.385 12.6105 14.3686 13.8912C13.7103 12.8052 12.3782 11.8266 10.6727 12.3188C8.52635 12.9381 7.6046 15.2141 8.15687 17.25C8.15999 17.2607 8.16338 17.2712 8.1665 17.2819C8.27534 17.728 9.50852 22.2316 17.1091 23.9989C17.1107 23.9992 17.1109 23.9992 17.1112 23.9992C22.7201 18.4187 21.5078 13.9089 21.3763 13.4693C21.3734 13.4583 21.3711 13.4475 21.3682 13.4368Z" fill="#D40404"/>
<path id="Fill 10" fill-rule="evenodd" clip-rule="evenodd" d="M36.8981 16.9892C36.901 16.9782 36.9041 16.9677 36.9067 16.9566C37.3973 14.9009 36.4104 12.651 34.2509 12.0989C32.5352 11.6601 31.2358 12.6824 30.6114 13.7906C30.5571 12.5089 29.8667 10.9776 28.1507 10.5388C25.9914 9.9867 24.1066 11.5019 23.616 13.5579C23.6134 13.5687 23.6116 13.5797 23.609 13.5907C23.4908 14.0349 22.4158 18.5891 28.1743 23.9979L28.1741 23.9989C28.1743 23.9989 28.1749 23.9987 28.1751 23.9987C28.1754 23.9989 28.1756 23.9992 28.1759 23.9995C28.1764 23.9995 28.1767 23.9992 28.1772 23.9992C28.1772 23.9995 28.1777 23.9997 28.178 24L28.1782 23.9989C35.7065 21.9882 36.803 17.4393 36.8981 16.9892Z" fill="#D40404"/>
<g id="Fill 8_3">
<path fill-rule="evenodd" clip-rule="evenodd" d="M20.3682 12.4368C19.8159 10.4009 17.8826 8.94911 15.7365 9.56866C14.031 10.0609 13.385 11.6105 13.3686 12.8912C12.7103 11.8052 11.3782 10.8266 9.67269 11.3188C7.52635 11.9381 6.6046 14.2141 7.15687 16.25C7.15999 16.2607 7.16338 16.2712 7.1665 16.2819C7.27534 16.728 8.50852 21.2316 16.1091 22.9989C16.1107 22.9992 16.1109 22.9992 16.1112 22.9992C21.7201 17.4187 20.5078 12.9089 20.3763 12.4693C20.3734 12.4583 20.3711 12.4475 20.3682 12.4368Z" fill="url(#paint3_linear)"/>
<path fill-rule="evenodd" clip-rule="evenodd" d="M20.3682 12.4368C19.8159 10.4009 17.8826 8.94911 15.7365 9.56866C14.031 10.0609 13.385 11.6105 13.3686 12.8912C12.7103 11.8052 11.3782 10.8266 9.67269 11.3188C7.52635 11.9381 6.6046 14.2141 7.15687 16.25C7.15999 16.2607 7.16338 16.2712 7.1665 16.2819C7.27534 16.728 8.50852 21.2316 16.1091 22.9989C16.1107 22.9992 16.1109 22.9992 16.1112 22.9992C21.7201 17.4187 20.5078 12.9089 20.3763 12.4693C20.3734 12.4583 20.3711 12.4475 20.3682 12.4368Z" fill="url(#paint4_radial)"/>
</g>
<g id="Fill 10_2">
<path fill-rule="evenodd" clip-rule="evenodd" d="M37.8981 15.9892C37.901 15.9782 37.9041 15.9677 37.9067 15.9566C38.3973 13.9009 37.4104 11.651 35.2509 11.0989C33.5352 10.6601 32.2358 11.6824 31.6114 12.7906C31.5571 11.5089 30.8667 9.97756 29.1507 9.53876C26.9914 8.9867 25.1066 10.5019 24.616 12.5579C24.6134 12.5687 24.6116 12.5797 24.609 12.5907C24.4908 13.0349 23.4158 17.5891 29.1743 22.9979L29.1741 22.9989C29.1743 22.9989 29.1749 22.9987 29.1751 22.9987C29.1754 22.9989 29.1756 22.9992 29.1759 22.9995C29.1764 22.9995 29.1767 22.9992 29.1772 22.9992C29.1772 22.9995 29.1777 22.9997 29.178 23L29.1782 22.9989C36.7065 20.9882 37.803 16.4393 37.8981 15.9892Z" fill="url(#paint5_linear)"/>
<path fill-rule="evenodd" clip-rule="evenodd" d="M37.8981 15.9892C37.901 15.9782 37.9041 15.9677 37.9067 15.9566C38.3973 13.9009 37.4104 11.651 35.2509 11.0989C33.5352 10.6601 32.2358 11.6824 31.6114 12.7906C31.5571 11.5089 30.8667 9.97756 29.1507 9.53876C26.9914 8.9867 25.1066 10.5019 24.616 12.5579C24.6134 12.5687 24.6116 12.5797 24.609 12.5907C24.4908 13.0349 23.4158 17.5891 29.1743 22.9979L29.1741 22.9989C29.1743 22.9989 29.1749 22.9987 29.1751 22.9987C29.1754 22.9989 29.1756 22.9992 29.1759 22.9995C29.1764 22.9995 29.1767 22.9992 29.1772 22.9992C29.1772 22.9995 29.1777 22.9997 29.178 23L29.1782 22.9989C36.7065 20.9882 37.803 16.4393 37.8981 15.9892Z" fill="url(#paint6_radial)"/>
</g>
</g>
</g>
<defs>
<radialGradient id="paint0_radial" cx="0" cy="0" r="1" gradientUnits="userSpaceOnUse" gradientTransform="translate(16.141 17.5171) rotate(90) scale(13.6296)">
<stop stop-color="#FFE8A1"/>
<stop offset="1" stop-color="#FFC500"/>
</radialGradient>
<linearGradient id="paint1_linear" x1="15.3256" y1="32.2052" x2="33.7361" y2="39.2758" gradientUnits="userSpaceOnUse">
<stop stop-color="#FFCB00" stop-opacity="0.105141"/>
<stop offset="1" stop-color="#E13A00" stop-opacity="0.402098"/>
</linearGradient>
<radialGradient id="paint2_radial" cx="0" cy="0" r="1" gradientUnits="userSpaceOnUse" gradientTransform="translate(21.1395 33.2037) scale(7.57483 2.25302)">
<stop stop-color="#FF6F6F"/>
<stop stop-color="#FF6D6D" stop-opacity="0.995195"/>
<stop offset="1" stop-color="#FF0000" stop-opacity="0.5"/>
</radialGradient>
<linearGradient id="paint3_linear" x1="20.5757" y1="9.42426" x2="7" y2="9.42426" gradientUnits="userSpaceOnUse">
<stop stop-color="#FF0000"/>
<stop offset="1" stop-color="#FF9494"/>
</linearGradient>
<radialGradient id="paint4_radial" cx="0" cy="0" r="1" gradientUnits="userSpaceOnUse" gradientTransform="translate(11.2108 14.9657) rotate(90) scale(7.35621 7.35661)">
<stop stop-color="#FF5D5D"/>
<stop offset="0.990472" stop-color="#FF0000"/>
</radialGradient>
<linearGradient id="paint5_linear" x1="38.0303" y1="9.42426" x2="24.4546" y2="9.42426" gradientUnits="userSpaceOnUse">
<stop stop-color="#FF0000"/>
<stop offset="1" stop-color="#FF9494"/>
</linearGradient>
<radialGradient id="paint6_radial" cx="0" cy="0" r="1" gradientUnits="userSpaceOnUse" gradientTransform="translate(28.6654 14.966) rotate(90) scale(7.35665)">
<stop stop-color="#FF5D5D"/>
<stop offset="0.990472" stop-color="#FF0000"/>
</radialGradient>
</defs>
</svg>
