<svg width="46" height="46" viewBox="0 0 46 46" fill="none" xmlns="http://www.w3.org/2000/svg">
<g id="3 svg">
<g id="5">
<g id="Group 4 Copy">
<g id="Oval">
<path fill-rule="evenodd" clip-rule="evenodd" d="M22.9347 39C31.7712 39 38.9347 31.8366 38.9347 23C38.9347 14.1634 31.7712 7 22.9347 7C14.0981 7 6.93466 14.1634 6.93466 23C6.93466 31.8366 14.0981 39 22.9347 39Z" fill="url(#paint0_radial)"/>
<path fill-rule="evenodd" clip-rule="evenodd" d="M22.9347 39C31.7712 39 38.9347 31.8366 38.9347 23C38.9347 14.1634 31.7712 7 22.9347 7C14.0981 7 6.93466 14.1634 6.93466 23C6.93466 31.8366 14.0981 39 22.9347 39Z" fill="url(#paint1_linear)"/>
</g>
<path id="Fill 4" fill-rule="evenodd" clip-rule="evenodd" d="M18.5451 23.9942C16.1354 23.9942 14.1817 22.0404 14.1817 19.6306C14.1817 17.2205 16.1354 15.2669 18.5451 15.2669C20.9552 15.2669 22.9089 17.2205 22.9089 19.6306C22.9089 22.0404 20.9552 23.9942 18.5451 23.9942Z" fill="#CA8502"/>
<path id="Fill 10" fill-rule="evenodd" clip-rule="evenodd" d="M33.6877 19.6653C33.6877 22.0947 31.7184 24.0638 29.289 24.0638C26.8601 24.0638 24.8908 22.0947 24.8908 19.6653C24.8908 17.236 26.8601 15.2669 29.289 15.2669C31.7184 15.2669 33.6877 17.236 33.6877 19.6653Z" fill="#CA8502"/>
<g id="Fill 4_2">
<path fill-rule="evenodd" clip-rule="evenodd" d="M17.5451 22.9942C15.1354 22.9942 13.1817 21.0404 13.1817 18.6306C13.1817 16.2205 15.1354 14.2669 17.5451 14.2669C19.9552 14.2669 21.9089 16.2205 21.9089 18.6306C21.9089 21.0404 19.9552 22.9942 17.5451 22.9942Z" fill="url(#paint2_radial)"/>
<path fill-rule="evenodd" clip-rule="evenodd" d="M17.5451 22.9942C15.1354 22.9942 13.1817 21.0404 13.1817 18.6306C13.1817 16.2205 15.1354 14.2669 17.5451 14.2669C19.9552 14.2669 21.9089 16.2205 21.9089 18.6306C21.9089 21.0404 19.9552 22.9942 17.5451 22.9942Z" fill="url(#paint3_linear)"/>
</g>
<path id="Fill 6" fill-rule="evenodd" clip-rule="evenodd" d="M13.1817 26.6335C13.7308 31.4396 17.8582 35.1753 22.8709 35.1753C27.8836 35.1753 32.011 31.4396 32.5602 26.6335H13.1817Z" fill="#1D1D1D"/>
<g id="Fill 8">
<path fill-rule="evenodd" clip-rule="evenodd" d="M22.7937 35.1753C25.4077 35.1753 27.7021 34.2729 29.3884 32.7066C22.8945 29.5359 16.2193 32.459 16.131 32.5019C17.8393 34.1602 20.1798 35.1753 22.7937 35.1753Z" fill="#FF2223"/>
<path fill-rule="evenodd" clip-rule="evenodd" d="M22.7937 35.1753C25.4077 35.1753 27.7021 34.2729 29.3884 32.7066C22.8945 29.5359 16.2193 32.459 16.131 32.5019C17.8393 34.1602 20.1798 35.1753 22.7937 35.1753Z" fill="url(#paint4_radial)"/>
</g>
<g id="Fill 10_2">
<path fill-rule="evenodd" clip-rule="evenodd" d="M32.6877 18.6653C32.6877 21.0947 30.7184 23.0638 28.289 23.0638C25.8601 23.0638 23.8908 21.0947 23.8908 18.6653C23.8908 16.236 25.8601 14.2669 28.289 14.2669C30.7184 14.2669 32.6877 16.236 32.6877 18.6653Z" fill="url(#paint5_radial)"/>
<path fill-rule="evenodd" clip-rule="evenodd" d="M32.6877 18.6653C32.6877 21.0947 30.7184 23.0638 28.289 23.0638C25.8601 23.0638 23.8908 21.0947 23.8908 18.6653C23.8908 16.236 25.8601 14.2669 28.289 14.2669C30.7184 14.2669 32.6877 16.236 32.6877 18.6653Z" fill="url(#paint6_linear)"/>
</g>
<g id="Fill 10_3">
<path fill-rule="evenodd" clip-rule="evenodd" d="M30.953 16.6654C30.953 18.1793 29.9541 19.4064 28.7218 19.4064C27.4898 19.4064 26.4909 18.1793 26.4909 16.6654C26.4909 15.1514 27.4898 13.9243 28.7218 13.9243C29.9541 13.9243 30.953 15.1514 30.953 16.6654Z" fill="black"/>
<path fill-rule="evenodd" clip-rule="evenodd" d="M30.953 16.6654C30.953 18.1793 29.9541 19.4064 28.7218 19.4064C27.4898 19.4064 26.4909 18.1793 26.4909 16.6654C26.4909 15.1514 27.4898 13.9243 28.7218 13.9243C29.9541 13.9243 30.953 15.1514 30.953 16.6654Z" fill="url(#paint7_radial)"/>
</g>
<g id="Fill 10 Copy">
<path fill-rule="evenodd" clip-rule="evenodd" d="M17.7577 19.4064C16.5256 19.4064 15.5267 18.1793 15.5267 16.6654C15.5267 15.1514 16.5256 13.9243 17.7577 13.9243C18.99 13.9243 19.9889 15.1514 19.9889 16.6654C19.9889 18.1793 18.99 19.4064 17.7577 19.4064Z" fill="black"/>
<path fill-rule="evenodd" clip-rule="evenodd" d="M17.7577 19.4064C16.5256 19.4064 15.5267 18.1793 15.5267 16.6654C15.5267 15.1514 16.5256 13.9243 17.7577 13.9243C18.99 13.9243 19.9889 15.1514 19.9889 16.6654C19.9889 18.1793 18.99 19.4064 17.7577 19.4064Z" fill="url(#paint8_radial)"/>
</g>
</g>
<path id="Fill 12" fill-rule="evenodd" clip-rule="evenodd" d="M14.8098 20.1785C5.96918 23.0477 4.74822 27.986 4.74822 27.986C3.22626 30.5096 4.09988 33.7533 6.69981 35.231C9.29951 36.7083 12.6409 35.8601 14.1631 33.3365C14.1631 33.3365 16.7841 30.2997 15.0342 21.4118L14.8098 20.1785Z" fill="#0996E1"/>
<path id="Fill 12_2" fill-rule="evenodd" clip-rule="evenodd" d="M14.0342 20.4118C5.19363 23.2809 3.74822 26.9861 3.74822 26.9861C2.22626 29.5096 3.09988 32.7534 5.69981 34.231C8.29951 35.7084 11.6409 34.8601 13.1631 32.3365C13.1631 32.3365 15.7841 29.2997 14.0342 20.4118Z" fill="url(#paint9_radial)"/>
</g>
</g>
<defs>
<radialGradient id="paint0_radial" cx="0" cy="0" r="1" gradientUnits="userSpaceOnUse" gradientTransform="translate(16.0757 17.5171) rotate(90) scale(13.6296)">
<stop stop-color="#FFE8A1"/>
<stop offset="1" stop-color="#FFC500"/>
</radialGradient>
<linearGradient id="paint1_linear" x1="15.2602" y1="32.2052" x2="33.6707" y2="39.2758" gradientUnits="userSpaceOnUse">
<stop stop-color="#FFCB00" stop-opacity="0.105141"/>
<stop offset="1" stop-color="#E13A00" stop-opacity="0.402098"/>
</linearGradient>
<radialGradient id="paint2_radial" cx="0" cy="0" r="1" gradientUnits="userSpaceOnUse" gradientTransform="translate(15.8887 17.8295) rotate(90) scale(4.72927)">
<stop stop-color="white"/>
<stop offset="1" stop-color="#E3E3E3"/>
</radialGradient>
<linearGradient id="paint3_linear" x1="21.9089" y1="14.2669" x2="13.1817" y2="14.2669" gradientUnits="userSpaceOnUse">
<stop stop-color="#D2D2D2"/>
<stop offset="1" stop-color="white" stop-opacity="0.502568"/>
</linearGradient>
<radialGradient id="paint4_radial" cx="0" cy="0" r="1" gradientUnits="userSpaceOnUse" gradientTransform="translate(21.0742 33.2037) scale(7.57483 2.25302)">
<stop stop-color="#FF6F6F"/>
<stop stop-color="#FF6D6D" stop-opacity="0.995195"/>
<stop offset="1" stop-color="#FF0000" stop-opacity="0.5"/>
</radialGradient>
<radialGradient id="paint5_radial" cx="0" cy="0" r="1" gradientUnits="userSpaceOnUse" gradientTransform="translate(26.6194 17.8579) rotate(90) scale(4.76696)">
<stop stop-color="white"/>
<stop offset="1" stop-color="#E3E3E3"/>
</radialGradient>
<linearGradient id="paint6_linear" x1="32.6877" y1="14.2669" x2="23.8908" y2="14.2669" gradientUnits="userSpaceOnUse">
<stop stop-color="#D2D2D2"/>
<stop offset="1" stop-color="white" stop-opacity="0.502568"/>
</linearGradient>
<radialGradient id="paint7_radial" cx="0" cy="0" r="1" gradientUnits="userSpaceOnUse" gradientTransform="translate(27.943 16.1966) rotate(90) scale(2.00092 1.62866)">
<stop stop-color="white" stop-opacity="0.3"/>
<stop offset="1" stop-opacity="0.5"/>
</radialGradient>
<radialGradient id="paint8_radial" cx="0" cy="0" r="1" gradientUnits="userSpaceOnUse" gradientTransform="translate(16.9788 16.1966) rotate(90) scale(2.00092 1.62866)">
<stop stop-color="white" stop-opacity="0.3"/>
<stop offset="1" stop-opacity="0.5"/>
</radialGradient>
<radialGradient id="paint9_radial" cx="0" cy="0" r="1" gradientUnits="userSpaceOnUse" gradientTransform="translate(6.41561 27.7268) rotate(90) scale(8.85523 7.08419)">
<stop stop-color="#95D5FF"/>
<stop offset="1" stop-color="#00A6FF"/>
</radialGradient>
</defs>
</svg>
