<svg width="46" height="46" viewBox="0 0 46 46" fill="none" xmlns="http://www.w3.org/2000/svg">
<g id="5 svg">
<g id="3">
<g id="Group 4 Copy">
<g id="Oval">
<path fill-rule="evenodd" clip-rule="evenodd" d="M23 39C31.8366 39 39 31.8366 39 23C39 14.1634 31.8366 7 23 7C14.1634 7 7 14.1634 7 23C7 31.8366 14.1634 39 23 39Z" fill="url(#paint0_radial)"/>
<path fill-rule="evenodd" clip-rule="evenodd" d="M23 39C31.8366 39 39 31.8366 39 23C39 14.1634 31.8366 7 23 7C14.1634 7 7 14.1634 7 23C7 31.8366 14.1634 39 23 39Z" fill="url(#paint1_linear)"/>
</g>
<path id="Fill 4" fill-rule="evenodd" clip-rule="evenodd" d="M18.6104 24.9942C16.2007 24.9942 14.247 23.0404 14.247 20.6306C14.247 18.2205 16.2007 16.2669 18.6104 16.2669C21.0206 16.2669 22.9743 18.2205 22.9743 20.6306C22.9743 23.0404 21.0206 24.9942 18.6104 24.9942Z" fill="#CA8502"/>
<path id="Fill 10" fill-rule="evenodd" clip-rule="evenodd" d="M33.753 20.6653C33.753 23.0947 31.7837 25.0638 29.3543 25.0638C26.9255 25.0638 24.9562 23.0947 24.9562 20.6653C24.9562 18.236 26.9255 16.2669 29.3543 16.2669C31.7837 16.2669 33.753 18.236 33.753 20.6653Z" fill="#CA8502"/>
<g id="Fill 4_2">
<path fill-rule="evenodd" clip-rule="evenodd" d="M17.6104 23.9942C15.2007 23.9942 13.247 22.0404 13.247 19.6306C13.247 17.2205 15.2007 15.2669 17.6104 15.2669C20.0206 15.2669 21.9743 17.2205 21.9743 19.6306C21.9743 22.0404 20.0206 23.9942 17.6104 23.9942Z" fill="url(#paint2_radial)"/>
<path fill-rule="evenodd" clip-rule="evenodd" d="M17.6104 23.9942C15.2007 23.9942 13.247 22.0404 13.247 19.6306C13.247 17.2205 15.2007 15.2669 17.6104 15.2669C20.0206 15.2669 21.9743 17.2205 21.9743 19.6306C21.9743 22.0404 20.0206 23.9942 17.6104 23.9942Z" fill="url(#paint3_linear)"/>
</g>
<g id="Fill 10_2">
<path fill-rule="evenodd" clip-rule="evenodd" d="M32.753 19.6653C32.753 22.0947 30.7837 24.0638 28.3543 24.0638C25.9255 24.0638 23.9562 22.0947 23.9562 19.6653C23.9562 17.236 25.9255 15.2669 28.3543 15.2669C30.7837 15.2669 32.753 17.236 32.753 19.6653Z" fill="url(#paint4_radial)"/>
<path fill-rule="evenodd" clip-rule="evenodd" d="M32.753 19.6653C32.753 22.0947 30.7837 24.0638 28.3543 24.0638C25.9255 24.0638 23.9562 22.0947 23.9562 19.6653C23.9562 17.236 25.9255 15.2669 28.3543 15.2669C30.7837 15.2669 32.753 17.236 32.753 19.6653Z" fill="url(#paint5_linear)"/>
</g>
<g id="Fill 10_3">
<path fill-rule="evenodd" clip-rule="evenodd" d="M31.0184 21.6654C31.0184 23.1793 30.0195 24.4064 28.7872 24.4064C27.5551 24.4064 26.5562 23.1793 26.5562 21.6654C26.5562 20.1514 27.5551 18.9243 28.7872 18.9243C30.0195 18.9243 31.0184 20.1514 31.0184 21.6654Z" fill="black"/>
<path fill-rule="evenodd" clip-rule="evenodd" d="M31.0184 21.6654C31.0184 23.1793 30.0195 24.4064 28.7872 24.4064C27.5551 24.4064 26.5562 23.1793 26.5562 21.6654C26.5562 20.1514 27.5551 18.9243 28.7872 18.9243C30.0195 18.9243 31.0184 20.1514 31.0184 21.6654Z" fill="url(#paint6_radial)"/>
</g>
<g id="Fill 10 Copy">
<path fill-rule="evenodd" clip-rule="evenodd" d="M17.823 24.4064C16.5909 24.4064 15.592 23.1793 15.592 21.6654C15.592 20.1514 16.5909 18.9243 17.823 18.9243C19.0553 18.9243 20.0542 20.1514 20.0542 21.6654C20.0542 23.1793 19.0553 24.4064 17.823 24.4064Z" fill="black"/>
<path fill-rule="evenodd" clip-rule="evenodd" d="M17.823 24.4064C16.5909 24.4064 15.592 23.1793 15.592 21.6654C15.592 20.1514 16.5909 18.9243 17.823 18.9243C19.0553 18.9243 20.0542 20.1514 20.0542 21.6654C20.0542 23.1793 19.0553 24.4064 17.823 24.4064Z" fill="url(#paint7_radial)"/>
</g>
</g>
<g id="Group 6">
<path id="Oval_2" fill-rule="evenodd" clip-rule="evenodd" d="M23.0654 35C26.3791 35 29.1443 34.8733 29.1443 32.1556C29.1443 29.4379 26.3791 28 23.0654 28C19.7517 28 17.0654 29.4379 17.0654 32.1556C17.0654 34.8733 19.7517 35 23.0654 35Z" fill="#1D1D1D"/>
<g id="Fill 8">
<path fill-rule="evenodd" clip-rule="evenodd" d="M23.3264 35C26.141 35 27.6564 34.7459 28.4387 34.0049C23.1171 32.2946 17.8838 33.9619 17.7955 34.0049C18.8378 35 20.5117 35 23.3264 35Z" fill="#FF2223"/>
<path fill-rule="evenodd" clip-rule="evenodd" d="M23.3264 35C26.141 35 27.6564 34.7459 28.4387 34.0049C23.1171 32.2946 17.8838 33.9619 17.7955 34.0049C18.8378 35 20.5117 35 23.3264 35Z" fill="url(#paint8_radial)"/>
</g>
</g>
<path id="Fill 12" fill-rule="evenodd" clip-rule="evenodd" d="M33.6213 23.3011C27.3996 30.2061 29.0005 35.1376 29.0005 35.1376C28.9442 38.084 31.3226 40.4564 34.313 40.436C37.3031 40.4156 39.7727 38.0104 39.8292 35.0638C39.8292 35.0638 40.5807 31.1232 34.6213 24.3011L33.6213 23.3011Z" fill="#0996E1"/>
<path id="Fill 12_2" fill-rule="evenodd" clip-rule="evenodd" d="M33.6213 23.3011C27.3997 30.2061 28.0005 34.1376 28.0005 34.1376C27.9442 37.084 30.3227 39.4564 33.3131 39.436C36.3032 39.4157 38.7727 37.0104 38.8292 34.0638C38.8292 34.0638 39.5807 30.1232 33.6213 23.3011Z" fill="url(#paint9_radial)"/>
</g>
</g>
<defs>
<radialGradient id="paint0_radial" cx="0" cy="0" r="1" gradientUnits="userSpaceOnUse" gradientTransform="translate(16.141 17.5171) rotate(90) scale(13.6296)">
<stop stop-color="#FFE8A1"/>
<stop offset="1" stop-color="#FFC500"/>
</radialGradient>
<linearGradient id="paint1_linear" x1="15.3256" y1="32.2052" x2="33.7361" y2="39.2758" gradientUnits="userSpaceOnUse">
<stop stop-color="#FFCB00" stop-opacity="0.105141"/>
<stop offset="1" stop-color="#E13A00" stop-opacity="0.402098"/>
</linearGradient>
<radialGradient id="paint2_radial" cx="0" cy="0" r="1" gradientUnits="userSpaceOnUse" gradientTransform="translate(15.954 18.8295) rotate(90) scale(4.72927)">
<stop stop-color="white"/>
<stop offset="1" stop-color="#E3E3E3"/>
</radialGradient>
<linearGradient id="paint3_linear" x1="21.9743" y1="15.2669" x2="13.247" y2="15.2669" gradientUnits="userSpaceOnUse">
<stop stop-color="#D2D2D2"/>
<stop offset="1" stop-color="white" stop-opacity="0.502568"/>
</linearGradient>
<radialGradient id="paint4_radial" cx="0" cy="0" r="1" gradientUnits="userSpaceOnUse" gradientTransform="translate(26.6847 18.8579) rotate(90) scale(4.76696)">
<stop stop-color="white"/>
<stop offset="1" stop-color="#E3E3E3"/>
</radialGradient>
<linearGradient id="paint5_linear" x1="32.753" y1="15.2669" x2="23.9562" y2="15.2669" gradientUnits="userSpaceOnUse">
<stop stop-color="#D2D2D2"/>
<stop offset="1" stop-color="white" stop-opacity="0.502568"/>
</linearGradient>
<radialGradient id="paint6_radial" cx="0" cy="0" r="1" gradientUnits="userSpaceOnUse" gradientTransform="translate(28.0083 21.1966) rotate(90) scale(2.00092 1.62866)">
<stop stop-color="white" stop-opacity="0.3"/>
<stop offset="1" stop-opacity="0.5"/>
</radialGradient>
<radialGradient id="paint7_radial" cx="0" cy="0" r="1" gradientUnits="userSpaceOnUse" gradientTransform="translate(17.0441 21.1966) rotate(90) scale(2.00092 1.62866)">
<stop stop-color="white" stop-opacity="0.3"/>
<stop offset="1" stop-opacity="0.5"/>
</radialGradient>
<radialGradient id="paint8_radial" cx="0" cy="0" r="1" gradientUnits="userSpaceOnUse" gradientTransform="translate(21.764 34.1176) scale(6.08112 1.0084)">
<stop stop-color="#FF6F6F"/>
<stop stop-color="#FF6D6D" stop-opacity="0.995195"/>
<stop offset="1" stop-color="#FF0000" stop-opacity="0.5"/>
</radialGradient>
<radialGradient id="paint9_radial" cx="0" cy="0" r="1" gradientUnits="userSpaceOnUse" gradientTransform="translate(30.6809 33.4453) rotate(60) scale(8.85523 7.08419)">
<stop stop-color="#95D5FF"/>
<stop offset="1" stop-color="#00A6FF"/>
</radialGradient>
</defs>
</svg>
