<svg width="46" height="46" viewBox="0 0 46 46" fill="none" xmlns="http://www.w3.org/2000/svg">
<g id="6 svg">
<g id="2">
<g id="Group 4 Copy">
<g id="Oval">
<path fill-rule="evenodd" clip-rule="evenodd" d="M23 39C31.8366 39 39 31.8366 39 23C39 14.1634 31.8366 7 23 7C14.1634 7 7 14.1634 7 23C7 31.8366 14.1634 39 23 39Z" fill="url(#paint0_radial)"/>
<path fill-rule="evenodd" clip-rule="evenodd" d="M23 39C31.8366 39 39 31.8366 39 23C39 14.1634 31.8366 7 23 7C14.1634 7 7 14.1634 7 23C7 31.8366 14.1634 39 23 39Z" fill="url(#paint1_linear)"/>
</g>
<path id="Fill 4" fill-rule="evenodd" clip-rule="evenodd" d="M17.6104 25.9942C15.2007 25.9942 13.247 24.0404 13.247 21.6306C13.247 19.2205 15.2007 17.2669 17.6104 17.2669C20.0206 17.2669 21.9743 19.2205 21.9743 21.6306C21.9743 24.0404 20.0206 25.9942 17.6104 25.9942Z" fill="#CA8502"/>
<path id="Fill 10" fill-rule="evenodd" clip-rule="evenodd" d="M34.753 21.6653C34.753 24.0947 32.7837 26.0638 30.3543 26.0638C27.9255 26.0638 25.9562 24.0947 25.9562 21.6653C25.9562 19.236 27.9255 17.2669 30.3543 17.2669C32.7837 17.2669 34.753 19.236 34.753 21.6653Z" fill="#CA8502"/>
<g id="Fill 4_2">
<path fill-rule="evenodd" clip-rule="evenodd" d="M16.6104 24.9942C14.2007 24.9942 12.247 23.0404 12.247 20.6306C12.247 18.2205 14.2007 16.2669 16.6104 16.2669C19.0206 16.2669 20.9743 18.2205 20.9743 20.6306C20.9743 23.0404 19.0206 24.9942 16.6104 24.9942Z" fill="url(#paint2_radial)"/>
<path fill-rule="evenodd" clip-rule="evenodd" d="M16.6104 24.9942C14.2007 24.9942 12.247 23.0404 12.247 20.6306C12.247 18.2205 14.2007 16.2669 16.6104 16.2669C19.0206 16.2669 20.9743 18.2205 20.9743 20.6306C20.9743 23.0404 19.0206 24.9942 16.6104 24.9942Z" fill="url(#paint3_linear)"/>
</g>
<g id="Fill 10_2">
<path fill-rule="evenodd" clip-rule="evenodd" d="M33.753 20.6653C33.753 23.0947 31.7837 25.0638 29.3543 25.0638C26.9255 25.0638 24.9562 23.0947 24.9562 20.6653C24.9562 18.236 26.9255 16.2669 29.3543 16.2669C31.7837 16.2669 33.753 18.236 33.753 20.6653Z" fill="url(#paint4_radial)"/>
<path fill-rule="evenodd" clip-rule="evenodd" d="M33.753 20.6653C33.753 23.0947 31.7837 25.0638 29.3543 25.0638C26.9255 25.0638 24.9562 23.0947 24.9562 20.6653C24.9562 18.236 26.9255 16.2669 29.3543 16.2669C31.7837 16.2669 33.753 18.236 33.753 20.6653Z" fill="url(#paint5_linear)"/>
</g>
<g id="Fill 10_3">
<path fill-rule="evenodd" clip-rule="evenodd" d="M32.0184 21.6654C32.0184 23.1793 31.0195 24.4064 29.7872 24.4064C28.5551 24.4064 27.5562 23.1793 27.5562 21.6654C27.5562 20.1514 28.5551 18.9243 29.7872 18.9243C31.0195 18.9243 32.0184 20.1514 32.0184 21.6654Z" fill="black"/>
<path fill-rule="evenodd" clip-rule="evenodd" d="M32.0184 21.6654C32.0184 23.1793 31.0195 24.4064 29.7872 24.4064C28.5551 24.4064 27.5562 23.1793 27.5562 21.6654C27.5562 20.1514 28.5551 18.9243 29.7872 18.9243C31.0195 18.9243 32.0184 20.1514 32.0184 21.6654Z" fill="url(#paint6_radial)"/>
</g>
<g id="Rectangle">
<path fill-rule="evenodd" clip-rule="evenodd" d="M13.2357 14.9523C13.3837 14.7979 13.6019 14.7326 13.8105 14.7803L20.5442 16.3194C21.0046 16.4246 21.3286 16.8376 21.3213 17.3098L21.3155 17.6811C21.3045 18.3851 20.5888 18.8576 19.9371 18.5911L13.4446 15.9365C13.0472 15.7741 12.9386 15.2622 13.2357 14.9523Z" fill="black"/>
<path fill-rule="evenodd" clip-rule="evenodd" d="M13.2357 14.9523C13.3837 14.7979 13.6019 14.7326 13.8105 14.7803L20.5442 16.3194C21.0046 16.4246 21.3286 16.8376 21.3213 17.3098L21.3155 17.6811C21.3045 18.3851 20.5888 18.8576 19.9371 18.5911L13.4446 15.9365C13.0472 15.7741 12.9386 15.2622 13.2357 14.9523Z" fill="url(#paint7_linear)"/>
</g>
<g id="Rectangle Copy">
<path fill-rule="evenodd" clip-rule="evenodd" d="M33.0134 14.9523C32.8654 14.7979 32.6471 14.7326 32.4386 14.7803L25.7049 16.3194C25.2445 16.4246 24.9205 16.8376 24.9278 17.3098L24.9336 17.6811C24.9446 18.3851 25.6603 18.8576 26.3119 18.5911L32.8045 15.9365C33.2018 15.7741 33.3105 15.2622 33.0134 14.9523Z" fill="black"/>
<path fill-rule="evenodd" clip-rule="evenodd" d="M33.0134 14.9523C32.8654 14.7979 32.6471 14.7326 32.4386 14.7803L25.7049 16.3194C25.2445 16.4246 24.9205 16.8376 24.9278 17.3098L24.9336 17.6811C24.9446 18.3851 25.6603 18.8576 26.3119 18.5911L32.8045 15.9365C33.2018 15.7741 33.3105 15.2622 33.0134 14.9523Z" fill="url(#paint8_linear)"/>
</g>
<g id="Fill 10 Copy">
<path fill-rule="evenodd" clip-rule="evenodd" d="M16.823 24.4064C15.5909 24.4064 14.592 23.1793 14.592 21.6654C14.592 20.1514 15.5909 18.9243 16.823 18.9243C18.0553 18.9243 19.0542 20.1514 19.0542 21.6654C19.0542 23.1793 18.0553 24.4064 16.823 24.4064Z" fill="black"/>
<path fill-rule="evenodd" clip-rule="evenodd" d="M16.823 24.4064C15.5909 24.4064 14.592 23.1793 14.592 21.6654C14.592 20.1514 15.5909 18.9243 16.823 18.9243C18.0553 18.9243 19.0542 20.1514 19.0542 21.6654C19.0542 23.1793 18.0553 24.4064 16.823 24.4064Z" fill="url(#paint9_radial)"/>
</g>
</g>
<g id="Group 6">
<path id="Oval_2" fill-rule="evenodd" clip-rule="evenodd" d="M23 34.5353C25.4427 34.5353 29 36.547 29 33.1675C29 29.788 26.2528 28 22.9608 28C19.6687 28 17 29.788 17 33.1675C17 36.547 20.5573 34.5353 23 34.5353Z" fill="#1D1D1D"/>
<g id="Fill 8">
<path fill-rule="evenodd" clip-rule="evenodd" d="M23.0656 34.5399C24.2262 34.5399 24.965 34.9661 27.0612 35.1295C22.8417 31.1871 19.1166 35.0956 19.0323 35.1295C20.4848 35.0278 21.905 34.5399 23.0656 34.5399Z" fill="#FF2223"/>
<path fill-rule="evenodd" clip-rule="evenodd" d="M23.0656 34.5399C24.2262 34.5399 24.965 34.9661 27.0612 35.1295C22.8417 31.1871 19.1166 35.0956 19.0323 35.1295C20.4848 35.0278 21.905 34.5399 23.0656 34.5399Z" fill="url(#paint10_radial)"/>
</g>
</g>
</g>
</g>
<defs>
<radialGradient id="paint0_radial" cx="0" cy="0" r="1" gradientUnits="userSpaceOnUse" gradientTransform="translate(16.141 17.5171) rotate(90) scale(13.6296)">
<stop stop-color="#FFE8A1"/>
<stop offset="1" stop-color="#FFC500"/>
</radialGradient>
<linearGradient id="paint1_linear" x1="15.3256" y1="32.2052" x2="33.7361" y2="39.2758" gradientUnits="userSpaceOnUse">
<stop stop-color="#FFCB00" stop-opacity="0.105141"/>
<stop offset="1" stop-color="#E13A00" stop-opacity="0.402098"/>
</linearGradient>
<radialGradient id="paint2_radial" cx="0" cy="0" r="1" gradientUnits="userSpaceOnUse" gradientTransform="translate(14.954 19.8295) rotate(90) scale(4.72927)">
<stop stop-color="white"/>
<stop offset="1" stop-color="#E3E3E3"/>
</radialGradient>
<linearGradient id="paint3_linear" x1="20.9743" y1="16.2669" x2="12.247" y2="16.2669" gradientUnits="userSpaceOnUse">
<stop stop-color="#D2D2D2"/>
<stop offset="1" stop-color="white" stop-opacity="0.502568"/>
</linearGradient>
<radialGradient id="paint4_radial" cx="0" cy="0" r="1" gradientUnits="userSpaceOnUse" gradientTransform="translate(27.6847 19.8579) rotate(90) scale(4.76696)">
<stop stop-color="white"/>
<stop offset="1" stop-color="#E3E3E3"/>
</radialGradient>
<linearGradient id="paint5_linear" x1="33.753" y1="16.2669" x2="24.9562" y2="16.2669" gradientUnits="userSpaceOnUse">
<stop stop-color="#D2D2D2"/>
<stop offset="1" stop-color="white" stop-opacity="0.502568"/>
</linearGradient>
<radialGradient id="paint6_radial" cx="0" cy="0" r="1" gradientUnits="userSpaceOnUse" gradientTransform="translate(29.0083 21.1966) rotate(90) scale(2.00092 1.62866)">
<stop stop-color="white" stop-opacity="0.3"/>
<stop offset="1" stop-opacity="0.5"/>
</radialGradient>
<linearGradient id="paint7_linear" x1="13.2634" y1="14.1348" x2="12.6138" y2="15.9631" gradientUnits="userSpaceOnUse">
<stop stop-color="#454545"/>
<stop offset="1" stop-opacity="0.5"/>
</linearGradient>
<linearGradient id="paint8_linear" x1="32.9857" y1="14.1348" x2="33.6353" y2="15.9631" gradientUnits="userSpaceOnUse">
<stop stop-color="#454545"/>
<stop offset="1" stop-opacity="0.5"/>
</linearGradient>
<radialGradient id="paint9_radial" cx="0" cy="0" r="1" gradientUnits="userSpaceOnUse" gradientTransform="translate(16.0441 21.1966) rotate(90) scale(2.00092 1.62866)">
<stop stop-color="white" stop-opacity="0.3"/>
<stop offset="1" stop-opacity="0.5"/>
</radialGradient>
<radialGradient id="paint10_radial" cx="0" cy="0" r="1" gradientUnits="userSpaceOnUse" gradientTransform="translate(22.026 34.2497) scale(4.58739 1.00545)">
<stop stop-color="#FF6F6F"/>
<stop stop-color="#FF6D6D" stop-opacity="0.995195"/>
<stop offset="1" stop-color="#FF0000" stop-opacity="0.5"/>
</radialGradient>
</defs>
</svg>
