<svg width="46" height="46" viewBox="0 0 46 46" fill="none" xmlns="http://www.w3.org/2000/svg">
<g id="7 svg">
<g id="1">
<g id="Oval">
<path fill-rule="evenodd" clip-rule="evenodd" d="M23 39C31.8366 39 39 31.8366 39 23C39 14.1634 31.8366 7 23 7C14.1634 7 7 14.1634 7 23C7 31.8366 14.1634 39 23 39Z" fill="url(#paint0_radial)"/>
<path fill-rule="evenodd" clip-rule="evenodd" d="M23 39C31.8366 39 39 31.8366 39 23C39 14.1634 31.8366 7 23 7C14.1634 7 7 14.1634 7 23C7 31.8366 14.1634 39 23 39Z" fill="url(#paint1_linear)"/>
</g>
<g id="Group 6">
<path id="Oval_2" fill-rule="evenodd" clip-rule="evenodd" d="M23 35C26.3137 35 29.0789 34.8733 29.0789 32.1556C29.0789 29.4379 26.3137 28 23 28C19.6863 28 17 29.4379 17 32.1556C17 34.8733 19.6863 35 23 35Z" fill="#1D1D1D"/>
</g>
<path id="Oval_3" fill-rule="evenodd" clip-rule="evenodd" d="M22.9731 42C25.1714 42 27.0059 41.7466 27.0059 36.3112C27.0059 30.8758 27.59 28 22.9731 28C18.3562 28 18.9926 30.8758 18.9926 36.3112C18.9926 41.7466 20.7747 42 22.9731 42Z" fill="url(#paint2_linear)"/>
<g id="Combined Shape">
<path fill-rule="evenodd" clip-rule="evenodd" d="M33.182 16.318C32.7915 15.9275 32.1583 15.9275 31.7678 16.318L30 18.0858L28.2322 16.318C27.8417 15.9275 27.2085 15.9275 26.818 16.318C26.4275 16.7086 26.4275 17.3417 26.818 17.7322L28.5858 19.5L26.818 21.2678C26.4275 21.6583 26.4275 22.2915 26.818 22.682C27.2085 23.0725 27.8417 23.0725 28.2322 22.682L30 20.9142L31.7678 22.682C32.1583 23.0725 32.7915 23.0725 33.182 22.682C33.5725 22.2915 33.5725 21.6583 33.182 21.2678L31.4142 19.5L33.182 17.7322C33.5725 17.3417 33.5725 16.7086 33.182 16.318Z" fill="black"/>
<path fill-rule="evenodd" clip-rule="evenodd" d="M33.182 16.318C32.7915 15.9275 32.1583 15.9275 31.7678 16.318L30 18.0858L28.2322 16.318C27.8417 15.9275 27.2085 15.9275 26.818 16.318C26.4275 16.7086 26.4275 17.3417 26.818 17.7322L28.5858 19.5L26.818 21.2678C26.4275 21.6583 26.4275 22.2915 26.818 22.682C27.2085 23.0725 27.8417 23.0725 28.2322 22.682L30 20.9142L31.7678 22.682C32.1583 23.0725 32.7915 23.0725 33.182 22.682C33.5725 22.2915 33.5725 21.6583 33.182 21.2678L31.4142 19.5L33.182 17.7322C33.5725 17.3417 33.5725 16.7086 33.182 16.318Z" fill="url(#paint3_linear)"/>
</g>
<g id="Combined Shape Copy">
<path fill-rule="evenodd" clip-rule="evenodd" d="M13.9651 16.318C14.3556 15.9275 14.9888 15.9275 15.3793 16.318L17.1471 18.0858L18.9149 16.318C19.3054 15.9275 19.9386 15.9275 20.3291 16.318C20.7196 16.7086 20.7196 17.3417 20.3291 17.7322L18.5613 19.5L20.3291 21.2678C20.7196 21.6583 20.7196 22.2915 20.3291 22.682C19.9386 23.0725 19.3054 23.0725 18.9149 22.682L17.1471 20.9142L15.3793 22.682C14.9888 23.0725 14.3556 23.0725 13.9651 22.682C13.5746 22.2915 13.5746 21.6583 13.9651 21.2678L15.7329 19.5L13.9651 17.7322C13.5746 17.3417 13.5746 16.7086 13.9651 16.318Z" fill="black"/>
<path fill-rule="evenodd" clip-rule="evenodd" d="M13.9651 16.318C14.3556 15.9275 14.9888 15.9275 15.3793 16.318L17.1471 18.0858L18.9149 16.318C19.3054 15.9275 19.9386 15.9275 20.3291 16.318C20.7196 16.7086 20.7196 17.3417 20.3291 17.7322L18.5613 19.5L20.3291 21.2678C20.7196 21.6583 20.7196 22.2915 20.3291 22.682C19.9386 23.0725 19.3054 23.0725 18.9149 22.682L17.1471 20.9142L15.3793 22.682C14.9888 23.0725 14.3556 23.0725 13.9651 22.682C13.5746 22.2915 13.5746 21.6583 13.9651 21.2678L15.7329 19.5L13.9651 17.7322C13.5746 17.3417 13.5746 16.7086 13.9651 16.318Z" fill="url(#paint4_linear)"/>
</g>
<path id="Path 3" fill-rule="evenodd" clip-rule="evenodd" d="M18.9629 34.2445C18.9629 34.2445 17.8715 39.4381 17.1471 40.3896C16.527 41.2042 14.4765 42.6155 15.1091 44.2038C15.7418 45.7921 18.367 43.1593 18.84 43.4617C19.7185 44.0231 19.1386 45.935 20.0439 45.2117C20.9492 44.4884 21.9139 42.8894 23.2346 43.4617C24.5553 44.0339 23.9203 45.6371 24.9438 45.7921C25.9673 45.9471 27.19 43.2438 28.1655 43.9402C28.767 44.3695 31.217 45.3218 31.8917 44.8128C33.0483 43.9402 30.866 41.366 30 40.3896C29.2958 39.5957 27 34.2445 27 34.2445H18.9629Z" fill="#5CBC2A"/>
<path id="Oval_4" fill-rule="evenodd" clip-rule="evenodd" d="M14.4963 41.4346C15.0288 40.8 15.1175 39.9978 14.6944 39.6428C14.2713 39.2878 13.4967 39.5144 12.9642 40.1491C12.4317 40.7837 12.343 41.5859 12.766 41.9409C13.1891 42.2959 13.9638 42.0692 14.4963 41.4346Z" fill="#45A015"/>
<path id="Oval Copy" fill-rule="evenodd" clip-rule="evenodd" d="M31.866 41.366C32.3443 41.6422 32.844 41.6722 32.9821 41.433C33.1201 41.1939 32.8443 40.7761 32.366 40.5C31.8877 40.2239 31.3881 40.1939 31.25 40.433C31.1119 40.6722 31.3877 41.0899 31.866 41.366Z" fill="#45A015"/>
<path id="Path 4" fill-rule="evenodd" clip-rule="evenodd" d="M19.0093 43.8591C18.8179 42.1258 21.6378 40.5878 21.6378 32.8383C21.6378 25.0887 22.4256 37.3326 21.7962 39.7976C21.1667 42.2626 19.2007 45.5924 19.0093 43.8591Z" fill="#45A015"/>
<path id="Path 4 Copy 2" fill-rule="evenodd" clip-rule="evenodd" d="M17.0168 43.4242C18.0856 40.296 19.9704 37.1019 19.6453 32.4034C19.3203 27.7049 20.2907 35.7481 19.6453 38.27C19 40.7919 15.948 46.5524 17.0168 43.4242Z" fill="#45A015"/>
<path id="Path 4 Copy" fill-rule="evenodd" clip-rule="evenodd" d="M28.2288 43.8591C28.4202 42.1257 25.6003 40.5878 25.6003 32.8383C25.6003 25.0887 24.7266 37.8904 25.464 40.3002C26.2014 42.71 28.0374 45.5924 28.2288 43.8591Z" fill="#45A015"/>
<path id="Path 4 Copy 3" fill-rule="evenodd" clip-rule="evenodd" d="M30.6202 44.1232C30.8116 42.3899 28.0241 38.1599 27.1791 32.7803C26.3342 27.4008 26.9232 35.9586 27.7834 38.3081C28.6436 40.6576 30.4288 45.8565 30.6202 44.1232Z" fill="#45A015"/>
<path id="Oval_5" fill-rule="evenodd" clip-rule="evenodd" d="M23.5 44C23.7761 44 23.9127 43.7907 23.9127 40.2008C23.9127 36.611 23.5 31 23.5 31C23.5 31 23 36.9077 23 40.4976C23 44.0874 23.2239 44 23.5 44Z" fill="#45A015"/>
</g>
</g>
<defs>
<radialGradient id="paint0_radial" cx="0" cy="0" r="1" gradientUnits="userSpaceOnUse" gradientTransform="translate(16.141 17.5171) rotate(90) scale(13.6296)">
<stop stop-color="#FFE8A1"/>
<stop offset="1" stop-color="#FFC500"/>
</radialGradient>
<linearGradient id="paint1_linear" x1="15.3256" y1="32.2052" x2="33.7361" y2="39.2758" gradientUnits="userSpaceOnUse">
<stop stop-color="#FFCB00" stop-opacity="0.105141"/>
<stop offset="1" stop-color="#E13A00" stop-opacity="0.402098"/>
</linearGradient>
<linearGradient id="paint2_linear" x1="21.6991" y1="29.6027" x2="21.6991" y2="34.1052" gradientUnits="userSpaceOnUse">
<stop stop-color="#409B10"/>
<stop offset="1" stop-color="#5CBC2A"/>
</linearGradient>
<linearGradient id="paint3_linear" x1="28.7203" y1="14.2606" x2="23.633" y2="19.646" gradientUnits="userSpaceOnUse">
<stop stop-color="#454545"/>
<stop offset="1" stop-opacity="0.5"/>
</linearGradient>
<linearGradient id="paint4_linear" x1="18.4268" y1="14.2606" x2="23.5141" y2="19.646" gradientUnits="userSpaceOnUse">
<stop stop-color="#454545"/>
<stop offset="1" stop-opacity="0.5"/>
</linearGradient>
</defs>
</svg>
