<svg width="76" height="61" viewBox="0 0 76 61" fill="none" xmlns="http://www.w3.org/2000/svg">
    <rect y="27" width="72" height="34" rx="4" fill="#F0D2D8"/>
    <path d="M16.5215 0.0843506L5.08496 53.7047H8.99634L19.6251 3.71248H23.7915L13.1628 53.7047H17.0742L28.4682 0.0843506H16.5215Z" fill="#E62849"/>
    <path d="M44.3265 40.7532C48.1528 40.7532 50.7462 38.3063 51.7241 33.961L57.4211 7.12971C57.9738 4.68284 57.6762 2.86877 56.6558 1.68752C55.763 0.675024 54.4025 0.126587 52.6169 0.126587H50.5762L49.8109 3.71252H52.1492C52.7444 3.71252 53.2546 3.83909 53.4672 4.1344C53.8923 4.55627 53.8923 5.4844 53.6797 6.8344L47.9827 33.6656C47.3025 36.661 45.942 37.0828 44.8366 37.0828H41.733L40.9678 40.7532H44.3265Z" fill="#E62849"/>
    <path d="M50.491 3.71252L51.2563 0.126587C49.5982 0.126587 47.3875 0.126587 47.3875 0.126587L35.9509 53.7469H39.8623L50.491 3.71252Z" fill="#E62849"/>
    <path fill-rule="evenodd" clip-rule="evenodd" d="M39.7773 0.0843506H39.9474L33.2725 53.7047H29.3611L30.2965 45.8156H26.0025L23.5791 53.7047H19.6677L35.9084 0.0843506H36.0785H39.7773ZM35.9084 9.57654L27.1504 42.2297H30.7641L35.9084 9.57654Z" fill="#E62849"/>
    <path d="M55.2102 53.7047H51.2988L62.7354 0.0843506H66.6467L55.2102 53.7047Z" fill="#E62849"/>
    <path d="M71.4935 0.0843506L61.2048 25.3969L65.1587 25.2703L75.745 0.0843506H71.4935Z" fill="#E62849"/>
    <rect x="61.2048" y="25.2703" width="3.95389" height="28.4344" fill="#E62849"/>
</svg>
